<svg xmlns="http://www.w3.org/2000/svg" width="157" height="115.807" viewBox="0 0 157 115.807">
  <g id="Grupo_15" data-name="Grupo 15" transform="translate(-4.546 -26.967)">
    <circle id="Elipse_16" data-name="Elipse 16" cx="21.625" cy="21.625" r="21.625" transform="translate(118.296 26.967)" fill="#e80a8e"/>
    <circle id="Elipse_17" data-name="Elipse 17" cx="21.625" cy="21.625" r="21.625" transform="translate(95.546 26.967)" fill="#c20981"/>
    <circle id="Elipse_18" data-name="Elipse 18" cx="21.625" cy="21.625" r="21.625" transform="translate(72.796 26.967)" fill="#9c0874"/>
    <circle id="Elipse_19" data-name="Elipse 19" cx="21.625" cy="21.625" r="21.625" transform="translate(50.046 26.967)" fill="#760767"/>
    <circle id="Elipse_20" data-name="Elipse 20" cx="21.625" cy="21.625" r="21.625" transform="translate(27.296 26.967)" fill="#50065a"/>
    <circle id="Elipse_21" data-name="Elipse 21" cx="21.625" cy="21.625" r="21.625" transform="translate(4.546 26.967)" fill="#2a054d"/>
    <path id="Caminho_28" data-name="Caminho 28" d="M25.548,61.184a1.006,1.006,0,0,1-.293-.744v-9.42h-9.33a1,1,0,0,1-1.037-1.037V48.631a1,1,0,0,1,1.037-1.037h9.33v-9.15a.99.99,0,0,1,.293-.766,1.054,1.054,0,0,1,.744-.271h1.441a.942.942,0,0,1,1.037,1.037v9.15H38.1a1,1,0,0,1,1.037,1.037v1.351A1,1,0,0,1,38.1,51.019H28.77v9.42a1,1,0,0,1-1.037,1.037H26.292A1,1,0,0,1,25.548,61.184Z" transform="translate(-0.842 -0.849)" fill="#e80a8e"/>
    <path id="Caminho_29" data-name="Caminho 29" d="M8.414,109.906a.984.984,0,0,1-.286-.727V88.335a.977.977,0,0,1,1.011-1.011h1.846a.916.916,0,0,1,.7.286,1.033,1.033,0,0,1,.264.726v1.5a7.811,7.811,0,0,1,6.42-2.946,7.065,7.065,0,0,1,6.86,4.045,7.766,7.766,0,0,1,3.013-2.946,8.771,8.771,0,0,1,4.375-1.1,7.678,7.678,0,0,1,5.892,2.462Q40.8,91.81,40.8,96.471v12.708a.977.977,0,0,1-1.011,1.011H37.9a.977.977,0,0,1-1.011-1.011V96.866q0-3.518-1.451-5.035a5.054,5.054,0,0,0-3.827-1.518,4.887,4.887,0,0,0-3.628,1.562q-1.517,1.561-1.517,4.991v12.313a.978.978,0,0,1-1.012,1.011H23.52a.976.976,0,0,1-1.011-1.011V96.866q0-3.472-1.518-5.013a5.068,5.068,0,0,0-3.76-1.54,4.917,4.917,0,0,0-3.628,1.54q-1.517,1.539-1.518,4.969v12.357a.976.976,0,0,1-1.01,1.011H9.139A.982.982,0,0,1,8.414,109.906Z" transform="translate(-0.291 -4.876)" fill="#2a054d"/>
    <path id="Caminho_30" data-name="Caminho 30" d="M52.846,109.751a7.428,7.428,0,0,1-2.9-2.4,5.674,5.674,0,0,1-1.078-3.364,5.757,5.757,0,0,1,2.375-4.75,13.73,13.73,0,0,1,6.465-2.463l6.6-.923V94.579q0-4.529-5.233-4.53a5.817,5.817,0,0,0-3.254.813,5.184,5.184,0,0,0-1.8,1.913,1.432,1.432,0,0,1-.375.594.872.872,0,0,1-.549.153H51.373a.979.979,0,0,1-.968-.967,4.289,4.289,0,0,1,.946-2.354,7.669,7.669,0,0,1,2.924-2.331,10.739,10.739,0,0,1,4.837-.988q4.925,0,7.059,2.286A8.06,8.06,0,0,1,68.3,94.887v14.292a.977.977,0,0,1-1.011,1.011H65.357a.91.91,0,0,1-.7-.285,1.03,1.03,0,0,1-.265-.727v-1.935a7.428,7.428,0,0,1-2.815,2.419,10.207,10.207,0,0,1-4.749.967A9.043,9.043,0,0,1,52.846,109.751Zm9.609-4.222a7.552,7.552,0,0,0,1.846-5.5V98.8l-5.145.747a12,12,0,0,0-4.793,1.5,3.087,3.087,0,0,0-1.627,2.638,3.119,3.119,0,0,0,1.473,2.771,6.23,6.23,0,0,0,3.5.966A6.348,6.348,0,0,0,62.455,105.529Z" transform="translate(-3.607 -4.876)" fill="#2a054d"/>
    <path id="Caminho_31" data-name="Caminho 31" d="M77.252,109.945a.984.984,0,0,1-.285-.727V88.373a.976.976,0,0,1,1.01-1.011h1.936a.977.977,0,0,1,1.011,1.011v20.844a.976.976,0,0,1-1.011,1.011H77.977A.985.985,0,0,1,77.252,109.945Z" transform="translate(-5.893 -4.915)" fill="#2a054d"/>
    <path id="Caminho_32" data-name="Caminho 32" d="M91.036,109.641a8.522,8.522,0,0,1-3.1-2.265,3.767,3.767,0,0,1-1.011-2.11.817.817,0,0,1,.308-.682,1.044,1.044,0,0,1,.66-.243h1.847a.856.856,0,0,1,.418.088,1.947,1.947,0,0,1,.417.4,7.975,7.975,0,0,0,2.265,1.935,6.86,6.86,0,0,0,3.364.7,7.193,7.193,0,0,0,3.8-.879,2.82,2.82,0,0,0,1.429-2.55,2.477,2.477,0,0,0-.615-1.759,5.332,5.332,0,0,0-2.046-1.188,34.307,34.307,0,0,0-4.243-1.143,10.966,10.966,0,0,1-5.409-2.419,5.533,5.533,0,0,1-1.584-4.091,5.773,5.773,0,0,1,.967-3.144,6.985,6.985,0,0,1,2.881-2.463,10.181,10.181,0,0,1,4.551-.944,11.011,11.011,0,0,1,4.728.922,8.2,8.2,0,0,1,2.946,2.155,3.626,3.626,0,0,1,.989,2.067.862.862,0,0,1-.285.66.973.973,0,0,1-.683.265h-1.671a.92.92,0,0,1-.879-.484q-.748-.835-1.254-1.3a4.177,4.177,0,0,0-1.473-.792,7.6,7.6,0,0,0-2.42-.33,5.236,5.236,0,0,0-3.3.9,2.9,2.9,0,0,0-1.143,2.4,2.506,2.506,0,0,0,.483,1.561A4.337,4.337,0,0,0,93.828,96.1a25.812,25.812,0,0,0,4.046,1.122q4.178.88,5.915,2.507a5.471,5.471,0,0,1,1.737,4.177,5.852,5.852,0,0,1-1.078,3.431,7.081,7.081,0,0,1-3.211,2.419,13.294,13.294,0,0,1-5.079.879A11.914,11.914,0,0,1,91.036,109.641Z" transform="translate(-6.704 -4.876)" fill="#2a054d"/>
    <path id="Caminho_33" data-name="Caminho 33" d="M7.6,150.16a1.053,1.053,0,0,1-.33-.77V128.721a1.03,1.03,0,0,1,.33-.791,1.093,1.093,0,0,1,.77-.309h5.1a1.056,1.056,0,0,1,1.1,1.1v1.5a8.814,8.814,0,0,1,2.726-2.155,8,8,0,0,1,3.782-.879q4.837,0,6.641,3.782a8.03,8.03,0,0,1,2.946-2.727,8.181,8.181,0,0,1,4.047-1.055,7.645,7.645,0,0,1,5.871,2.441q2.263,2.439,2.263,7.277v12.49a1.1,1.1,0,0,1-.307.77,1.038,1.038,0,0,1-.792.33h-5.41a1.144,1.144,0,0,1-.813-.309,1.032,1.032,0,0,1-.331-.791V137.209a4.321,4.321,0,0,0-.857-2.968,2.96,2.96,0,0,0-2.309-.946,2.86,2.86,0,0,0-2.221.946,4.326,4.326,0,0,0-.857,2.968V149.39a1.1,1.1,0,0,1-.308.77,1.037,1.037,0,0,1-.792.33H22.438a1.142,1.142,0,0,1-.813-.309,1.028,1.028,0,0,1-.331-.791V137.209a4.247,4.247,0,0,0-.88-2.968,2.975,2.975,0,0,0-2.286-.946,2.925,2.925,0,0,0-2.243.946,4.175,4.175,0,0,0-.88,2.923V149.39a1.1,1.1,0,0,1-.307.77,1.039,1.039,0,0,1-.793.33H8.366A1.055,1.055,0,0,1,7.6,150.16Z" transform="translate(-0.221 -8.155)" fill="#2a054d"/>
    <path id="Caminho_34" data-name="Caminho 34" d="M54.306,148.373q-2.374-2.595-2.375-7.343V128.76a1.033,1.033,0,0,1,.33-.791,1.1,1.1,0,0,1,.77-.309h5.849a1.148,1.148,0,0,1,.813.309,1.034,1.034,0,0,1,.331.791v12.006q0,4.09,3.65,4.09a3.545,3.545,0,0,0,2.749-1.077,4.29,4.29,0,0,0,.989-3.013V128.76a1.033,1.033,0,0,1,.33-.791,1.148,1.148,0,0,1,.814-.309h5.8a1.057,1.057,0,0,1,1.1,1.1v20.669a1.1,1.1,0,0,1-.309.77,1.033,1.033,0,0,1-.791.33H68.994a1.148,1.148,0,0,1-.815-.309,1.03,1.03,0,0,1-.329-.791v-1.671q-2.287,3.211-7.3,3.211A8.062,8.062,0,0,1,54.306,148.373Z" transform="translate(-3.856 -8.194)" fill="#2a054d"/>
    <path id="Caminho_35" data-name="Caminho 35" d="M86.287,150.16a1.056,1.056,0,0,1-.33-.77V128.721a1.034,1.034,0,0,1,.33-.791,1.1,1.1,0,0,1,.77-.309h5.409a1.056,1.056,0,0,1,1.1,1.1v1.671a8.612,8.612,0,0,1,3.056-2.331,9.965,9.965,0,0,1,4.288-.879,8.683,8.683,0,0,1,4.464,1.144,7.885,7.885,0,0,1,3.078,3.385,11.987,11.987,0,0,1,1.121,5.409v12.27a1.093,1.093,0,0,1-.307.77,1.038,1.038,0,0,1-.792.33h-5.85a1.145,1.145,0,0,1-.813-.309,1.031,1.031,0,0,1-.33-.791V137.384a4.406,4.406,0,0,0-.945-3.034,3.5,3.5,0,0,0-2.749-1.055,3.615,3.615,0,0,0-2.771,1.078,4.226,4.226,0,0,0-1.011,3.012V149.39a1.1,1.1,0,0,1-.309.77,1.033,1.033,0,0,1-.791.33H87.057A1.056,1.056,0,0,1,86.287,150.16Z" transform="translate(-6.625 -8.155)" fill="#2a054d"/>
    <path id="Caminho_36" data-name="Caminho 36" d="M119.638,147.545q-2.44-2.681-2.616-7.651l-.044-1.54.044-1.583a11.556,11.556,0,0,1,2.638-7.542,8.523,8.523,0,0,1,6.685-2.749,8.387,8.387,0,0,1,6.377,2.55v-9.367a1.035,1.035,0,0,1,.329-.791,1.092,1.092,0,0,1,.77-.308h5.673a1.148,1.148,0,0,1,.813.308,1.033,1.033,0,0,1,.33.791v29.025a1.028,1.028,0,0,1-.33.791,1.145,1.145,0,0,1-.813.309h-5.233a1.127,1.127,0,0,1-1.1-1.1v-1.363a8.3,8.3,0,0,1-6.816,2.9A8.607,8.607,0,0,1,119.638,147.545Zm12.072-4.639a5.335,5.335,0,0,0,1.012-3.056q.087-1.23.087-1.672,0-.482-.087-1.626a4.641,4.641,0,0,0-1.034-2.837,3.447,3.447,0,0,0-2.793-1.122,3.289,3.289,0,0,0-2.837,1.166,6.031,6.031,0,0,0-.988,3.232l-.044,1.363.044,1.363a6.023,6.023,0,0,0,.988,3.232,3.956,3.956,0,0,0,5.651-.043Z" transform="translate(-9.149 -7.454)" fill="#2a054d"/>
    <path id="Caminho_37" data-name="Caminho 37" d="M151.236,148.356A9.942,9.942,0,0,1,148,141.034q-.044-.57-.044-1.979t.044-1.979a9.845,9.845,0,0,1,3.321-7.278q3.055-2.617,8.421-2.616t8.421,2.616a9.852,9.852,0,0,1,3.321,7.278q.087,1.144.088,1.979t-.088,1.979a9.943,9.943,0,0,1-3.233,7.322q-2.968,2.573-8.509,2.573T151.236,148.356Zm11.193-4.09a6.144,6.144,0,0,0,1.011-3.452q.044-.44.044-1.759t-.044-1.758a6.185,6.185,0,0,0-1.011-3.431,3.72,3.72,0,0,0-5.365,0,6.185,6.185,0,0,0-1.011,3.431l-.044,1.758.044,1.759a6.145,6.145,0,0,0,1.011,3.452,3.77,3.77,0,0,0,5.365,0Z" transform="translate(-11.67 -8.155)" fill="#2a054d"/>
    <g id="Grupo_14" data-name="Grupo 14" transform="translate(113.341 73.668)">
      <path id="Caminho_38" data-name="Caminho 38" d="M125.542,106.861a13.015,13.015,0,0,1-2.518-7.665l-.045-1.337.045-1.337a12.968,12.968,0,0,1,2.54-7.644q2.36-3.051,7-3.053a8.651,8.651,0,0,1,7.219,3.3V78.83a.993.993,0,0,1,1.025-1.025h2.005a.993.993,0,0,1,1.026,1.025v29.591a.992.992,0,0,1-1.026,1.025h-1.916a.921.921,0,0,1-.713-.289,1.042,1.042,0,0,1-.267-.736v-1.915a8.63,8.63,0,0,1-7.354,3.386Q127.882,109.892,125.542,106.861Zm12.545-2.517a8.653,8.653,0,0,0,1.693-4.925q.044-.489.045-1.694,0-1.247-.045-1.737a7.6,7.6,0,0,0-1.715-4.7,5.682,5.682,0,0,0-4.657-1.982,5.411,5.411,0,0,0-4.679,2.005,9.353,9.353,0,0,0-1.6,5.258l-.045,1.293q0,8.557,6.328,8.556A5.484,5.484,0,0,0,138.087,104.344Z" transform="translate(-122.979 -77.805)" fill="#2a054d"/>
      <path id="Caminho_39" data-name="Caminho 39" d="M153.8,107.84a10.813,10.813,0,0,1-2.829-7.354l-.045-1.916.045-1.916A10.7,10.7,0,0,1,153.84,89.3a11.585,11.585,0,0,1,15.019,0,10.71,10.71,0,0,1,2.875,7.354q.088.981.088,1.916t-.088,1.916a10.818,10.818,0,0,1-2.83,7.354q-2.653,2.763-7.554,2.762T153.8,107.84Zm12.077-2.385a7.847,7.847,0,0,0,1.805-5.191q.043-.445.044-1.694t-.044-1.694a7.849,7.849,0,0,0-1.805-5.191,6.571,6.571,0,0,0-9.048,0,7.853,7.853,0,0,0-1.8,5.191l-.044,1.694.044,1.694a7.852,7.852,0,0,0,1.8,5.191,6.571,6.571,0,0,0,9.048,0Z" transform="translate(-125.253 -78.516)" fill="#2a054d"/>
    </g>
  </g>
</svg>
